PathFileType	4	(X/Y/Z)	Patient4_TMGait_0pt4_01_right_08.trc.trc
DataRate	CameraRate	NumFrames	NumMarkers	Units	OrigDataRate	OrigDataStartFrame	OrigNumFrames
75.268817204301	75.268817204301	4	33	mm	75.268817204301	18	       141
Frame#	Time	Sacral			L.Shoulder			Chest			R.Shoulder			Neck			R.ASIS			L.ASIS			R.Thigh.Superior			R.Thigh.Lateral			R.Thigh.Inferior			R.Patella			L.Thigh.Superior			L.Thigh.Lateral			L.Thigh.Inferior			L.Patella			L.Shank.Superior			L.Shank.Lateral			L.Shank.Inferior			R.Shank.Superior			R.Shank.Lateral			R.Shank.Inferior			R.Heel			R.Midfoot.Superior			R.Midfoot.Lateral			R.Toe			L.Heel			L.Midfoot.Lateral			L.Midfoot.Superior			L.Toe			L.Elbow			L.Wrist			R.Elbow			R.Wrist			
		X1	Y1	Z1	X2	Y2	Z2	X3	Y3	Z3	X4	Y4	Z4	X5	Y5	Z5	X6	Y6	Z6	X7	Y7	Z7	X8	Y8	Z8	X9	Y9	Z9	X10	Y10	Z10	X11	Y11	Z11	X12	Y12	Z12	X13	Y13	Z13	X14	Y14	Z14	X15	Y15	Z15	X16	Y16	Z16	X17	Y17	Z17	X18	Y18	Z18	X19	Y19	Z19	X20	Y20	Z20	X21	Y21	Z21	X22	Y22	Z22	X23	Y23	Z23	X24	Y24	Z24	X25	Y25	Z25	X26	Y26	Z26	X27	Y27	Z27	X28	Y28	Z28	X29	Y29	Z29	X30	Y30	Z30	X31	Y31	Z31	X32	Y32	Z32	X33	Y33	Z33	

18	10.225857142857	786.495352343624	1009.704085312473	451.822158727521	1006.995767214490	1427.707993272326	274.978794992890	1080.555361779097	1362.358685869362	452.040383600106	975.621623204440	1444.933483211719	609.543212379452	970.298327627402	1496.539522679361	427.054832094762	1001.873763362088	950.763965604384	596.384399510939	1016.306379869926	958.382061506431	320.076399173560	1066.933020939853	761.794596049790	573.109873609196	1008.773527355754	646.758716068289	643.244832820488	1092.818512433483	599.673714607091	563.872749737658	1118.586744308114	516.912472170935	580.282737906766	1028.263786385104	734.037353542206	358.042974542387	925.416872214860	631.542441816366	289.480977961631	986.292857513867	543.852030171844	361.115238454327	973.213341602437	478.066338321001	371.799463331794	943.343623201208	409.800578805987	362.609513037911	848.130555787268	301.989412729760	308.176557810246	881.725968243922	188.917240499674	386.127573857873	1098.310345042163	430.773208591508	591.289281856904	1040.870597793646	321.214285324277	658.072720289014	1103.391831406429	230.721570528832	605.380754798192	998.878860424726	48.625101008001	581.117405598334	1166.256061706532	115.615278068743	619.604172282722	1083.791534075344	43.956818935856	654.292661237660	1288.413561606999	72.219635347567	643.816515850728	742.608046436391	38.717447349814	425.269540882044	818.927966091492	35.360338429161	347.126409608475	902.093283341586	95.306014536600	376.755920259410	1031.208305421446	40.456063184927	352.299890617398	1044.713379778130	1081.489887102066	151.659788350837	1277.806043554722	967.958104100313	168.971696920349	829.574834873654	1129.941892448624	715.343501295317	818.842877731943	868.303149885491	723.044682078687	
19	10.239142857143	787.226690740087	1008.927983486323	452.996929416343	1007.689040390633	1427.063097850730	276.757348797948	1081.020443612955	1361.573719537439	453.871234839905	975.873346343467	1444.047755757334	611.293712958057	970.671875105013	1495.802518755069	428.830401401187	1002.291070865016	949.795075027218	597.899319107199	1017.181015641687	957.602689046734	321.506211190245	1065.398771500642	759.236578226300	574.916406115272	1005.210778386085	644.554458822589	643.786525647573	1088.990292371680	597.330091573857	564.384417488657	1114.008384470266	515.862098672756	579.760368727767	1027.697814839167	732.973506384845	359.147537265000	924.013408039141	631.145222979719	290.368483653381	984.327723217754	542.989801822663	361.705640222396	970.786273097460	477.124149638798	372.241046491520	940.375059756142	409.085146411383	362.997324428765	844.158648867702	302.077351398460	308.417672617464	877.050284435251	188.574885396777	386.130101665701	1095.816878788195	429.508857756942	590.812195660738	1040.536791303076	318.251804761272	656.652946220559	1105.452373323111	229.425774901598	603.794674043964	1004.847216585680	46.011455849778	578.092000184713	1171.277788387889	114.494391232188	617.169028277100	1089.523703790763	42.101084383842	651.537345005639	1293.898818368489	72.334184005290	641.729833693032	737.263114879355	38.748881232917	425.219816008475	813.568264529725	35.333573240403	347.099964144325	896.736480879104	95.241785791903	376.712320481804	1025.828728454023	40.377292835237	352.284788781032	1045.336816997054	1080.766160782673	153.599416378813	1278.068754506792	966.549829627005	171.322208709819	830.238016763686	1128.554217990309	716.223282735794	821.356378975280	866.702345348527	723.126704311581	
20	10.252428571429	788.145235748828	1008.005153525195	454.412345428569	1008.182732602230	1426.414792133005	278.697136207627	1081.428614806642	1360.830851236792	455.819443114135	976.077964122809	1443.101474899548	613.225531287850	970.915259732653	1495.024688454084	430.796297815989	1002.993392232770	948.760773630443	599.502337675693	1018.176590796730	956.801030794525	323.054933569940	1064.554862102600	756.948516732849	576.678963706001	1002.444156842703	642.423540566741	644.141818299595	1086.143608588796	595.282512747231	564.853802688484	1110.186653861288	514.726628164590	579.280880968547	1027.404733478770	731.884251804061	360.249304046997	922.757796670822	630.748378896728	291.382105756900	982.552917635101	542.103726045593	362.350562246787	968.558868925169	476.121831327422	372.768795292802	937.556979042370	408.338510758120	363.455185322754	840.257930559672	302.206653555361	308.736245178000	872.420488101254	188.238482014971	386.157424462415	1093.483216311395	428.004303848510	590.255222971465	1039.384802309154	315.561960175302	654.964062054524	1105.945955215133	227.974373304555	602.024109521177	1007.759141542306	44.389011645743	574.828421081214	1173.634569197136	113.011941911753	614.464082697394	1092.063042391533	40.692462582928	648.635757154584	1296.350556771956	71.116069957502	639.588965339667	731.912226721112	38.785267663081	425.156522587008	808.212143025703	35.311395058484	347.076427830089	891.378789044526	95.188894477248	376.672438551726	1020.451483904820	40.288985897246	352.263057277996	1045.662308643380	1080.031215647350	155.619213712943	1277.768776232121	964.474063097171	173.711278899349	831.429790854705	1126.840106031481	717.488476855970	825.174604344043	864.788470885354	723.731976650910	
21	10.265714285714	789.243086107954	1006.955167157391	456.056143907340	1008.480016475413	1425.768885165593	280.796808097193	1081.781529256407	1360.146118194379	457.888465479408	976.229058461493	1442.108963154096	615.339394475479	971.031844818747	1494.219047698053	432.950141726213	1003.981916023369	947.678162056687	601.198791494171	1019.291461071767	955.989353279079	324.729682324839	1064.431074857212	754.942121054585	578.391325965046	1000.491355225142	640.390711864269	644.336664650187	1084.307869114727	593.525366786062	565.305782080777	1107.151283627859	513.491897386639	578.835898176115	1027.375555915666	730.783679801637	361.340920566415	921.641459808196	630.364217542578	292.513164046808	980.960650677648	541.203479284506	363.047350813230	966.537027651931	475.064178460789	373.373834699970	934.885338986156	407.569612571386	363.981368627954	836.426055756813	302.389529029872	309.135679713566	867.836867968132	187.921876622633	386.210372112408	1091.397210731552	426.268258200876	589.632342879453	1037.616323036396	313.100482782701	653.148890426968	1105.073973807482	226.302926230949	600.149050592289	1007.878671456430	43.480269706356	571.577127185474	1173.562431255665	111.201055364537	611.585098544042	1091.755102947655	39.618349371167	645.786848812975	1296.132180472561	68.792992360935	637.434711638320	726.553033232951	38.844366130966	425.077841017032	802.860701763523	35.300603177313	347.055859675151	886.024754240432	95.153705197973	376.634309774160	1015.079336436715	40.189361341585	352.232516664863	1045.684317972726	1079.281792070031	157.728787484068	1276.890913933735	961.727987647579	176.108031443998	833.114606035898	1124.833805766910	719.118616296825	830.250723727547	862.624028823985	724.884390875149	
